<svg width="32" height="32" viewBox="0 0 32 32" fill="none" xmlns="http://www.w3.org/2000/svg">
<path d="M12.1247 31C13.147 31 13.9757 30.1393 13.9757 29.0775C13.9757 28.0158 13.147 27.155 12.1247 27.155C11.1024 27.155 10.2736 28.0158 10.2736 29.0775C10.2736 30.1393 11.1024 31 12.1247 31Z" stroke="black" stroke-linecap="round" stroke-linejoin="round"/>
<path d="M24.9117 31C25.934 31 26.7627 30.1393 26.7627 29.0775C26.7627 28.0158 25.934 27.155 24.9117 27.155C23.8894 27.155 23.0606 28.0158 23.0606 29.0775C23.0606 30.1393 23.8894 31 24.9117 31Z" stroke="black" stroke-linecap="round" stroke-linejoin="round"/>
<path d="M25.7355 23.2871H13.0883C12.2797 23.2871 11.5541 22.7931 11.1394 22.0073L5.08532 7.90717H28.7626C30.2968 7.90717 31.3749 9.636 30.8773 11.2975L27.871 21.4235C27.6015 22.5237 26.7307 23.2871 25.7148 23.2871H25.7355Z" stroke="black" stroke-linecap="round" stroke-linejoin="round"/>
<path d="M13.2559 12.5119H19.3839" stroke="black" stroke-miterlimit="10" stroke-linecap="round"/>
<path d="M5.08531 7.90714V3.8089L1 1" stroke="black" stroke-linecap="round" stroke-linejoin="round"/>
</svg>
