<svg width="37" height="37" viewBox="0 0 37 37" fill="none" xmlns="http://www.w3.org/2000/svg">
<rect width="37" height="37" rx="4" fill="white"/>
<path d="M15.3135 30.8334C16.154 30.8334 16.8355 30.1257 16.8355 29.2526C16.8355 28.3796 16.154 27.6719 15.3135 27.6719C14.4729 27.6719 13.7915 28.3796 13.7915 29.2526C13.7915 30.1257 14.4729 30.8334 15.3135 30.8334Z" stroke="black" stroke-linecap="round" stroke-linejoin="round"/>
<path d="M25.8272 30.8334C26.6677 30.8334 27.3491 30.1257 27.3491 29.2526C27.3491 28.3796 26.6677 27.6719 25.8272 27.6719C24.9866 27.6719 24.3052 28.3796 24.3052 29.2526C24.3052 30.1257 24.9866 30.8334 25.8272 30.8334Z" stroke="black" stroke-linecap="round" stroke-linejoin="round"/>
<path d="M26.5044 24.4916H16.1056C15.4408 24.4916 14.8441 24.0854 14.5032 23.4393L9.52539 11.8459H28.9933C30.2548 11.8459 31.1413 13.2674 30.7322 14.6335L28.2603 22.9593C28.0387 23.8639 27.3227 24.4916 26.4874 24.4916H26.5044Z" stroke="black" stroke-linecap="round" stroke-linejoin="round"/>
<path d="M16.2437 15.632H21.2822" stroke="black" stroke-miterlimit="10" stroke-linecap="round"/>
<path d="M9.52554 11.8459V8.47623L6.1665 6.16669" stroke="black" stroke-linecap="round" stroke-linejoin="round"/>
</svg>
