<svg width="26" height="26" viewBox="0 0 26 26" fill="none" xmlns="http://www.w3.org/2000/svg">
<path fill-rule="evenodd" clip-rule="evenodd" d="M12.1875 16.25V0H13.8125V16.25H12.1875ZM4.95667 4.95666C3.36584 6.54748 2.28248 8.57431 1.84357 10.7808C1.40467 12.9874 1.62993 15.2745 2.49087 17.353C3.35182 19.4315 4.80978 21.2081 6.68039 22.458C8.551 23.7079 10.7502 24.375 13 24.375C15.2498 24.375 17.449 23.7079 19.3196 22.458C21.1902 21.2081 22.6482 19.4315 23.5091 17.353C24.3701 15.2745 24.5953 12.9874 24.1564 10.7808C23.7175 8.57431 22.6342 6.54748 21.0433 4.95666L22.1924 3.80761C24.0105 5.62569 25.2486 7.94207 25.7502 10.4638C26.2518 12.9856 25.9944 15.5994 25.0104 17.9749C24.0265 20.3503 22.3602 22.3806 20.2224 23.8091C18.0846 25.2376 15.5712 26 13 26C10.4288 26 7.91543 25.2376 5.77759 23.8091C3.63975 22.3806 1.97351 20.3503 0.98957 17.9749C0.00563197 15.5994 -0.251811 12.9856 0.249798 10.4638C0.751406 7.94207 1.98954 5.62569 3.80762 3.80761L4.95667 4.95666Z" fill="#2F3744"/>
</svg>
