<svg width="30" height="30" viewBox="0 0 30 30" fill="none" xmlns="http://www.w3.org/2000/svg">
<path fill-rule="evenodd" clip-rule="evenodd" d="M14.0625 18.75V0H15.9375V18.75H14.0625ZM5.71923 5.71922C3.88367 7.55478 2.63363 9.89344 2.1272 12.4394C1.62077 14.9854 1.88069 17.6244 2.87409 20.0227C3.86748 22.421 5.54975 24.4708 7.70814 25.913C9.86654 27.3552 12.4041 28.125 15 28.125C17.5959 28.125 20.1335 27.3552 22.2919 25.913C24.4503 24.4708 26.1325 22.421 27.1259 20.0227C28.1193 17.6244 28.3792 14.9854 27.8728 12.4394C27.3664 9.89344 26.1163 7.55479 24.2808 5.71922L25.6066 4.3934C27.7044 6.49118 29.133 9.16393 29.7118 12.0736C30.2906 14.9834 29.9935 17.9994 28.8582 20.7403C27.7229 23.4811 25.8003 25.8238 23.3335 27.472C20.8668 29.1203 17.9667 30 15 30C12.0333 30 9.13318 29.1203 6.66645 27.472C4.19971 25.8238 2.27713 23.4811 1.14181 20.7402C0.00649843 17.9994 -0.290551 14.9834 0.288228 12.0736C0.867007 9.16393 2.29562 6.49118 4.39341 4.39339L5.71923 5.71922Z" fill="black"/>
</svg>
