<svg width="30" height="28" viewBox="0 0 30 28" fill="none" xmlns="http://www.w3.org/2000/svg">
<path fill-rule="evenodd" clip-rule="evenodd" d="M15 0L30 12.5571L29.1607 13.6067L25.6039 10.6292V24.6095C25.6039 26.482 24.1203 28 22.2902 28H7.70984C5.87973 28 4.39613 26.482 4.39613 24.6095V10.6292L0.839347 13.6067L0 12.5571L15 0ZM5.72161 9.51957V24.6095C5.72161 25.733 6.61177 26.6438 7.70984 26.6438H11.0235V17.8286C11.0235 16.705 11.9137 15.7943 13.0118 15.7943H16.9882C18.0863 15.7943 18.9765 16.705 18.9765 17.8286V26.6438H22.2902C23.3882 26.6438 24.2784 25.733 24.2784 24.6095V9.51957L15 1.75228L5.72161 9.51957ZM17.651 26.6438V17.8286C17.651 17.4541 17.3542 17.1505 16.9882 17.1505H13.0118C12.6458 17.1505 12.349 17.4541 12.349 17.8286V26.6438H17.651Z" fill="#2F3744"/>
</svg>
