<svg width="17" height="19" viewBox="0 0 17 19" fill="none" xmlns="http://www.w3.org/2000/svg">
<path fill-rule="evenodd" clip-rule="evenodd" d="M7.5 15C3.35786 15 0 11.6421 0 7.5C0 3.35786 3.35786 0 7.5 0C11.6421 0 15 3.35786 15 7.5C15 9.48047 14.2324 11.2816 12.9784 12.6222L16.7809 17.3753C17.1259 17.8066 17.056 18.4359 16.6247 18.7809C16.1934 19.1259 15.5641 19.056 15.2191 18.6247L11.4304 13.8888C10.2875 14.5935 8.94124 15 7.5 15ZM7.5 13C10.5376 13 13 10.5376 13 7.5C13 4.46243 10.5376 2 7.5 2C4.46243 2 2 4.46243 2 7.5C2 10.5376 4.46243 13 7.5 13Z" fill="black"/>
</svg>
