<svg width="26" height="27" viewBox="0 0 26 27" fill="none" xmlns="http://www.w3.org/2000/svg">
<path fill-rule="evenodd" clip-rule="evenodd" d="M9.64903 1.10569C9.81901 0.449396 10.4139 0 11.0845 0H14.9502C15.6238 0 16.2205 0.453242 16.3877 1.11334L17.169 4.19861C17.1862 4.26653 17.2411 4.34137 17.3395 4.38691C17.8637 4.62961 18.3661 4.91607 18.8411 5.24322C18.9287 5.3035 19.0256 5.31648 19.1021 5.29531L22.1871 4.44164C22.8333 4.26285 23.5254 4.53731 23.8665 5.1205L25.7993 8.42592C26.1435 9.01447 26.0362 9.75842 25.5447 10.2277L23.2292 12.4384C23.1754 12.4898 23.1405 12.5727 23.1491 12.672C23.1982 13.24 23.1983 13.8111 23.1496 14.3791C23.1409 14.4795 23.1767 14.5633 23.2316 14.6147L25.531 16.7683C26.0309 17.2365 26.1428 17.9867 25.7959 18.5799L23.8629 21.8855C23.5246 22.464 22.8403 22.7393 22.1977 22.5682L19.0161 21.7213C18.941 21.7013 18.8463 21.7142 18.7602 21.7725C18.2845 22.0948 17.7819 22.3765 17.258 22.6147C17.1558 22.6611 17.0996 22.7393 17.0834 22.8096L16.3802 25.8565C16.2244 26.5315 15.6204 27 14.9354 27L11.0775 27C10.4122 27 9.82084 26.5577 9.64575 25.9085L8.79781 22.7646C8.78001 22.6986 8.72621 22.6263 8.631 22.5814C8.11059 22.3358 7.61218 22.047 7.14116 21.7179C7.05042 21.6545 6.94908 21.6422 6.87031 21.6662L3.84616 22.5883C3.19119 22.788 2.47795 22.5159 2.12963 21.9203L0.20067 18.6215C-0.139189 18.0403 -0.0392728 17.3062 0.439123 16.8354L2.77276 14.5384C2.82427 14.4877 2.85772 14.407 2.8501 14.3105C2.80497 13.7386 2.80941 13.1639 2.86337 12.5928C2.8729 12.4919 2.83737 12.4074 2.78238 12.3555L0.469257 10.1736C-0.027517 9.70504 -0.137702 8.95715 0.208163 8.36568L2.13703 5.06708C2.47953 4.48136 3.17595 4.20735 3.82392 4.39033L6.92077 5.26488C6.9976 5.28658 7.09518 5.27381 7.18329 5.21317C7.65846 4.88617 8.16092 4.59986 8.68519 4.35731C8.78296 4.31209 8.83781 4.23791 8.85529 4.17044L9.64903 1.10569ZM11.0845 1.22727C10.9601 1.22727 10.861 1.30988 10.834 1.4141L10.0403 4.47885C9.92197 4.9356 9.59668 5.2873 9.19819 5.47165C8.73653 5.68523 8.29426 5.93726 7.87619 6.22497C7.51203 6.47557 7.04202 6.57416 6.58881 6.44618L3.49195 5.57163C3.3722 5.53781 3.24997 5.59067 3.19322 5.68772L1.26435 8.98632C1.209 9.08097 1.22478 9.20112 1.30822 9.27982L3.62134 11.4617C3.97153 11.792 4.12469 12.2585 4.08218 12.7084C4.0349 13.209 4.03101 13.7126 4.07056 14.2137C4.10462 14.6454 3.95902 15.0907 3.63049 15.4141L1.29686 17.7111C1.21675 17.7899 1.2024 17.9077 1.25686 18.0008L3.18582 21.2996C3.24356 21.3984 3.36887 21.4511 3.48988 21.4142L6.51403 20.492C6.97941 20.3501 7.46691 20.4496 7.84109 20.711C8.25549 21.0005 8.69418 21.2547 9.15243 21.471C9.54138 21.6545 9.85935 21.9983 9.97964 22.4443L10.8276 25.5882C10.8554 25.6914 10.9541 25.7727 11.0775 25.7727L14.9354 25.7727C15.0626 25.7727 15.1628 25.6866 15.1874 25.5798L15.8906 22.5329C16.001 22.055 16.3373 21.6856 16.7524 21.4969C17.2138 21.2872 17.6561 21.0392 18.0748 20.7556C18.4312 20.5142 18.8874 20.4172 19.3303 20.5351L22.5119 21.382C22.6307 21.4137 22.7507 21.3607 22.8067 21.2649L24.7398 17.9592C24.7953 17.8643 24.7792 17.7438 24.6952 17.6651L22.3958 15.5115C22.0465 15.1843 21.8913 14.7217 21.9298 14.2739C21.9725 13.7761 21.9724 13.2757 21.9294 12.7779C21.8911 12.3348 22.0423 11.8768 22.3848 11.5497L24.7004 9.33901C24.7829 9.26026 24.7982 9.14078 24.7431 9.04656L22.8103 5.74115C22.7538 5.64452 22.6323 5.59162 22.5129 5.62467L19.4278 6.47834C18.9767 6.60319 18.5099 6.50406 18.1479 6.25481C17.73 5.96697 17.2878 5.71481 16.8262 5.50109C16.4254 5.31554 16.0989 4.96073 15.9824 4.5006L15.201 1.41533C15.1745 1.31058 15.0752 1.22727 14.9502 1.22727H11.0845ZM13.0195 9.81818C10.946 9.81818 9.28107 11.4753 9.28107 13.5C9.28107 15.5247 10.946 17.1818 13.0195 17.1818C15.093 17.1818 16.7579 15.5247 16.7579 13.5C16.7579 11.4753 15.093 9.81818 13.0195 9.81818ZM8.0568 13.5C8.0568 10.78 10.2875 8.59091 13.0195 8.59091C15.7515 8.59091 17.9822 10.78 17.9822 13.5C17.9822 16.22 15.7515 18.4091 13.0195 18.4091C10.2875 18.4091 8.0568 16.22 8.0568 13.5Z" fill="#2F3744"/>
</svg>
