<svg width="29" height="30" viewBox="0 0 29 30" fill="none" xmlns="http://www.w3.org/2000/svg">
<path fill-rule="evenodd" clip-rule="evenodd" d="M10.7211 1.22854C10.91 0.499329 11.571 0 12.3161 0H16.6114C17.3597 0 18.0228 0.503603 18.2085 1.23705L19.0767 4.66512C19.0958 4.74059 19.1568 4.82375 19.2661 4.87435C19.8486 5.14401 20.4068 5.4623 20.9346 5.8258C21.0319 5.89277 21.1395 5.9072 21.2245 5.88368L24.6524 4.93515C25.3703 4.7365 26.1394 5.04146 26.5183 5.68945L28.6659 9.36213C29.0483 10.0161 28.9292 10.8427 28.383 11.3641L25.8102 13.8205C25.7504 13.8775 25.7117 13.9697 25.7212 14.08C25.7757 14.7111 25.7759 15.3457 25.7217 15.9768C25.7122 16.0883 25.7519 16.1814 25.8129 16.2386L28.3678 18.6315C28.9232 19.1516 29.0476 19.9852 28.6622 20.6443L26.5144 24.3172C26.1385 24.96 25.3782 25.2659 24.6641 25.0758L21.129 24.1348C21.0455 24.1125 20.9404 24.1268 20.8447 24.1917C20.3161 24.5498 19.7577 24.8628 19.1756 25.1274C19.062 25.179 18.9996 25.2659 18.9816 25.344L18.2002 28.7294C18.0271 29.4794 17.356 30 16.5949 30L12.3083 30C11.5691 30 10.912 29.5085 10.7175 28.7872L9.77534 25.294C9.75556 25.2207 9.69579 25.1403 9.59 25.0904C9.01177 24.8176 8.45798 24.4966 7.93462 24.131C7.8338 24.0606 7.7212 24.0468 7.63367 24.0735L4.27351 25.0981C3.54577 25.32 2.75328 25.0177 2.36626 24.3558L0.222967 20.6905C-0.154655 20.0447 -0.0436365 19.2292 0.487914 18.7059L3.08084 16.1537C3.13807 16.0974 3.17524 16.0078 3.16678 15.9006C3.11664 15.2651 3.12157 14.6266 3.18152 13.9919C3.19211 13.8799 3.15263 13.7859 3.09154 13.7283L0.521396 11.304C-0.0305744 10.7834 -0.153002 9.95239 0.231293 9.2952L2.37448 5.63009C2.75504 4.97929 3.52884 4.67483 4.2488 4.87815L7.68975 5.84987C7.77511 5.87398 7.88353 5.85978 7.98144 5.79241C8.5094 5.42908 9.06769 5.11095 9.65022 4.84146C9.75884 4.79121 9.81979 4.70879 9.83921 4.63382L10.7211 1.22854ZM12.3161 1.36364C12.1779 1.36364 12.0678 1.45543 12.0378 1.57122L11.1559 4.9765C11.0244 5.484 10.663 5.87478 10.2202 6.07961C9.70725 6.31692 9.21584 6.59696 8.75132 6.91663C8.3467 7.19508 7.82446 7.30462 7.3209 7.16242L3.87995 6.19069C3.74689 6.15312 3.61108 6.21186 3.54802 6.31969L1.40483 9.9848C1.34333 10.09 1.36087 10.2235 1.45358 10.3109L4.02372 12.7352C4.41281 13.1022 4.58299 13.6205 4.53576 14.1205C4.48323 14.6766 4.4789 15.2362 4.52284 15.793C4.56069 16.2727 4.39891 16.7675 4.03388 17.1268L1.44096 19.679C1.35195 19.7666 1.33601 19.8975 1.39651 20.0009L3.5398 23.6663C3.60396 23.776 3.74319 23.8345 3.87764 23.7935L7.23781 22.7689C7.7549 22.6112 8.29656 22.7218 8.71232 23.0122C9.17277 23.3339 9.6602 23.6164 10.1694 23.8566C10.6015 24.0606 10.9548 24.4425 11.0885 24.9381L12.0306 28.4313C12.0616 28.546 12.1712 28.6363 12.3083 28.6363L16.5949 28.6364C16.7362 28.6364 16.8475 28.5407 16.8749 28.422L17.6563 25.0366C17.7788 24.5056 18.1526 24.0951 18.6138 23.8855C19.1264 23.6525 19.6179 23.3769 20.0831 23.0618C20.4791 22.7936 20.986 22.6858 21.4781 22.8168L25.0132 23.7578C25.1452 23.793 25.2786 23.7341 25.3408 23.6276L27.4886 19.9547C27.5503 19.8492 27.5325 19.7153 27.4392 19.6279L24.8842 17.235C24.4961 16.8715 24.3237 16.3574 24.3664 15.8599C24.4139 15.3068 24.4138 14.7507 24.366 14.1977C24.3234 13.7053 24.4915 13.1964 24.872 12.833L27.4449 10.3767C27.5365 10.2892 27.5536 10.1564 27.4924 10.0517L25.3448 6.37905C25.282 6.27169 25.147 6.21291 25.0143 6.24963L21.5865 7.19816C21.0852 7.33687 20.5666 7.22674 20.1644 6.94978C19.7 6.62997 19.2086 6.34979 18.6958 6.11232C18.2505 5.90615 17.8877 5.51192 17.7582 5.00066L16.89 1.57259C16.8606 1.4562 16.7502 1.36364 16.6114 1.36364H12.3161ZM14.4661 10.9091C12.1622 10.9091 10.3123 12.7504 10.3123 15C10.3123 17.2496 12.1622 19.0909 14.4661 19.0909C16.7699 19.0909 18.6199 17.2496 18.6199 15C18.6199 12.7504 16.7699 10.9091 14.4661 10.9091ZM8.95201 15C8.95201 11.9778 11.4305 9.54546 14.4661 9.54546C17.5017 9.54546 19.9802 11.9778 19.9802 15C19.9802 18.0222 17.5017 20.4545 14.4661 20.4545C11.4305 20.4545 8.95201 18.0222 8.95201 15Z" fill="black"/>
</svg>
