<svg width="25" height="32" viewBox="0 0 25 32" fill="none" xmlns="http://www.w3.org/2000/svg">
<path d="M9.45833 4.61621C9.86104 4.61621 10.1875 4.28042 10.1875 3.86621C10.1875 3.452 9.86104 3.11621 9.45833 3.11621C9.05562 3.11621 8.72916 3.452 8.72916 3.86621C8.72916 4.28042 9.05562 4.61621 9.45833 4.61621Z" stroke="black" stroke-width="0.5" stroke-miterlimit="10" stroke-linecap="round"/>
<path d="M12.375 4.61621C12.7777 4.61621 13.1042 4.28042 13.1042 3.86621C13.1042 3.452 12.7777 3.11621 12.375 3.11621C11.9723 3.11621 11.6458 3.452 11.6458 3.86621C11.6458 4.28042 11.9723 4.61621 12.375 4.61621Z" stroke="black" stroke-width="0.5" stroke-miterlimit="10" stroke-linecap="round"/>
<path d="M15.2917 4.61621C15.6944 4.61621 16.0208 4.28042 16.0208 3.86621C16.0208 3.452 15.6944 3.11621 15.2917 3.11621C14.889 3.11621 14.5625 3.452 14.5625 3.86621C14.5625 4.28042 14.889 4.61621 15.2917 4.61621Z" stroke="black" stroke-width="0.5" stroke-miterlimit="10" stroke-linecap="round"/>
<path d="M21.125 4.677C22.7292 4.677 24.0417 6.13273 24.0417 7.91862V27.3834C24.0417 29.1693 22.7292 30.625 21.125 30.625H3.625C2.02083 30.625 0.708332 29.1693 0.708332 27.3834V7.91862C0.708332 6.13273 2.02083 4.677 3.625 4.677" stroke="black" stroke-miterlimit="10" stroke-linecap="round"/>
<path d="M4.35416 13.6065H11.6458" stroke="black" stroke-miterlimit="10" stroke-linecap="round"/>
<path d="M4.35416 18.4689H16.75" stroke="black" stroke-miterlimit="10" stroke-linecap="round"/>
<path d="M4.35416 23.3464H11.6458" stroke="black" stroke-miterlimit="10" stroke-linecap="round"/>
<path d="M18.8208 3.86662C18.8208 2.08073 17.5229 0.625 15.9188 0.625H8.83126C7.2271 0.625 5.9146 2.08073 5.9146 3.86662C5.9146 5.65251 7.2271 7.10824 8.83126 7.10824H15.9042C17.5083 7.10824 18.8208 5.65251 18.8208 3.86662Z" stroke="black" stroke-miterlimit="10" stroke-linecap="round"/>
</svg>
