<svg width="37" height="37" viewBox="0 0 37 37" fill="none" xmlns="http://www.w3.org/2000/svg">
<rect width="37" height="37" rx="4" fill="white"/>
<path d="M15.8024 8.31688C16.1749 8.31688 16.4769 8.00628 16.4769 7.62313C16.4769 7.23998 16.1749 6.92938 15.8024 6.92938C15.4299 6.92938 15.1279 7.23998 15.1279 7.62313C15.1279 8.00628 15.4299 8.31688 15.8024 8.31688Z" stroke="black" stroke-width="0.5" stroke-miterlimit="10" stroke-linecap="round"/>
<path d="M18.5002 8.31688C18.8727 8.31688 19.1746 8.00628 19.1746 7.62313C19.1746 7.23998 18.8727 6.92938 18.5002 6.92938C18.1277 6.92938 17.8257 7.23998 17.8257 7.62313C17.8257 8.00628 18.1277 8.31688 18.5002 8.31688Z" stroke="black" stroke-width="0.5" stroke-miterlimit="10" stroke-linecap="round"/>
<path d="M21.1979 8.31688C21.5704 8.31688 21.8724 8.00628 21.8724 7.62313C21.8724 7.23998 21.5704 6.92938 21.1979 6.92938C20.8254 6.92938 20.5234 7.23998 20.5234 7.62313C20.5234 8.00628 20.8254 8.31688 21.1979 8.31688Z" stroke="black" stroke-width="0.5" stroke-miterlimit="10" stroke-linecap="round"/>
<path d="M26.5939 8.37311C28.0778 8.37311 29.2918 9.71966 29.2918 11.3716V29.3765C29.2918 31.0284 28.0778 32.375 26.5939 32.375H10.4064C8.92256 32.375 7.7085 31.0284 7.7085 29.3765V11.3716C7.7085 9.71966 8.92256 8.37311 10.4064 8.37311" stroke="black" stroke-miterlimit="10" stroke-linecap="round"/>
<path d="M11.0811 16.6329H17.8258" stroke="black" stroke-miterlimit="10" stroke-linecap="round"/>
<path d="M11.0811 21.1306H22.5472" stroke="black" stroke-miterlimit="10" stroke-linecap="round"/>
<path d="M11.0811 25.6423H17.8258" stroke="black" stroke-miterlimit="10" stroke-linecap="round"/>
<path d="M24.4627 7.6235C24.4627 5.97155 23.2621 4.625 21.7783 4.625H15.2223C13.7385 4.625 12.5244 5.97155 12.5244 7.6235C12.5244 9.27545 13.7385 10.622 15.2223 10.622H21.7648C23.2486 10.622 24.4627 9.27545 24.4627 7.6235Z" stroke="black" stroke-miterlimit="10" stroke-linecap="round"/>
</svg>
